<?xml version="1.0" standalone="no"?>
<!DOCTYPE svg PUBLIC "-//W3C//DTD SVG 20010904//EN"
 "http://www.w3.org/TR/2001/REC-SVG-20010904/DTD/svg10.dtd">
<svg version="1.0" xmlns="http://www.w3.org/2000/svg"
 width="1000.000000pt" height="1000.000000pt" viewBox="150 150 650.000000 650.000000"
 preserveAspectRatio="xMidYMid meet">

<g transform="translate(0.000000,1000.000000) scale(0.100000,-0.100000)"
fill="#d83621" stroke="none">
<path d="M4563 7741 c-73 -25 -127 -63 -163 -116 -20 -29 -63 -140 -124 -322
-177 -526 -1288 -3828 -1401 -4165 l-113 -338 526 0 527 0 206 678 206 677
721 3 721 2 40 -127 c22 -71 116 -375 210 -676 93 -302 171 -551 174 -553 2
-2 236 -3 519 -2 l515 3 -814 2455 c-448 1350 -816 2456 -817 2457 -1 2 -150
12 -330 23 -410 25 -533 25 -603 1z m642 -1881 c107 -453 195 -829 195 -837 0
-11 -81 -13 -456 -13 l-456 0 6 24 c3 13 118 389 256 835 137 446 250 814 250
818 0 32 35 -111 205 -827z"/>
</g>
</svg>
